<svg width="25" height="22" viewBox="0 0 25 22" fill="none" xmlns="http://www.w3.org/2000/svg">
<g clip-path="url(#clip0_201_9)">
<path d="M24.5004 2.61333C23.6188 3.04291 22.6594 3.35208 21.6711 3.4725C22.6971 2.78397 23.4655 1.69622 23.832 0.413327C22.8692 1.06027 21.8145 1.51392 20.7146 1.75415C20.2549 1.19903 19.6989 0.756799 19.0813 0.455008C18.4636 0.153216 17.7976 -0.00166557 17.1247 1.35072e-05C14.402 1.35072e-05 12.2123 2.49291 12.2123 5.55208C12.2123 5.98167 12.2584 6.41125 12.3333 6.82457C8.2565 6.58374 4.62048 4.38374 2.2032 1.0154C1.76274 1.86518 1.53193 2.83276 1.53477 3.81747C1.53477 5.74409 2.402 7.44291 3.72444 8.44202C2.94511 8.40735 2.18402 8.16539 1.50308 7.73581V7.80415C1.50308 10.5021 3.19143 12.7379 5.44161 13.2521C5.01912 13.376 4.58449 13.4395 4.14797 13.4408C3.82817 13.4408 3.52565 13.405 3.22024 13.3562C3.84257 15.5562 5.65482 17.1541 7.8128 17.2062C6.12444 18.7 4.00968 19.5787 1.7134 19.5787C1.3014 19.5787 0.921085 19.5624 0.526367 19.5104C2.70452 21.0888 5.28891 22 8.0721 22C17.1074 22 22.0514 13.545 22.0514 6.20622C22.0514 5.96539 22.0514 5.72457 22.037 5.48374C22.9936 4.69291 23.832 3.71332 24.5004 2.61333Z" fill="#21A6DF"/>
</g>
<defs>
<clipPath id="clip0_201_9">
<rect width="24" height="22" fill="white" transform="translate(0.5)"/>
</clipPath>
</defs>
</svg>
