<svg width="25" height="18" viewBox="0 0 25 18" fill="none" xmlns="http://www.w3.org/2000/svg">
<g clip-path="url(#clip0_201_11)">
<path d="M23.9699 2.82327C23.8335 2.28079 23.5663 1.78617 23.1951 1.38893C22.824 0.991685 22.3619 0.705745 21.855 0.559727C19.9884 0.0190431 12.4879 0.019043 12.4879 0.019043C12.4879 0.019043 4.98729 0.0190431 3.12071 0.559727C2.61385 0.705745 2.15172 0.991685 1.78057 1.38893C1.40941 1.78617 1.14225 2.28079 1.00582 2.82327C0.657288 4.8607 0.488155 6.92864 0.500644 8.9999C0.488155 11.0712 0.657288 13.1391 1.00582 15.1765C1.14225 15.719 1.40941 16.2136 1.78057 16.6109C2.15172 17.0081 2.61385 17.294 3.12071 17.4401C4.98729 17.9807 12.4879 17.9807 12.4879 17.9807C12.4879 17.9807 19.9884 17.9807 21.855 17.4401C22.3619 17.294 22.824 17.0081 23.1951 16.6109C23.5663 16.2136 23.8335 15.719 23.9699 15.1765C24.3184 13.1391 24.4876 11.0712 24.4751 8.9999C24.4876 6.92864 24.3184 4.8607 23.9699 2.82327V2.82327ZM10.0904 12.8488V5.15096L16.3152 8.9999L10.0904 12.8488Z" fill="#E42F08"/>
</g>
<defs>
<clipPath id="clip0_201_11">
<rect width="24" height="18" fill="white" transform="translate(0.5)"/>
</clipPath>
</defs>
</svg>
