<svg width="17" height="16" viewBox="0 0 17 16" fill="none" xmlns="http://www.w3.org/2000/svg">
<path d="M0.441301 15.4667H2.04417V6.66667C2.04417 6.5194 2.16379 6.4 2.31132 6.4H6.05135V0.266667C6.05135 0.1194 6.17097 0 6.3185 0H13.2643C13.4118 0 13.5314 0.1194 13.5314 0.266667V15.4667H15.9357C16.0833 15.4667 16.2029 15.5861 16.2029 15.7333C16.2029 15.8806 16.0833 16 15.9357 16H0.441301C0.29377 16 0.174155 15.8806 0.174155 15.7333C0.174155 15.5861 0.29377 15.4667 0.441301 15.4667ZM10.5928 15.4667H11.6614V13.0667C11.6614 12.9194 11.5418 12.8 11.3943 12.8H10.86C10.7124 12.8 10.5928 12.9194 10.5928 13.0667V15.4667ZM9.52425 6.66667V15.4667H10.0585V13.0667C10.0585 12.6248 10.4173 12.2667 10.86 12.2667H11.3943C11.8369 12.2667 12.1957 12.6248 12.1957 13.0667V15.4667H12.9971V0.533333H6.58565V6.4H9.2571C9.40463 6.4 9.52425 6.5194 9.52425 6.66667ZM2.57846 15.4667H8.98995V6.93333H2.57846V15.4667Z" fill="#84829A"/>
<path d="M7.65415 3.7334H9.25702C9.40456 3.7334 9.52417 3.8528 9.52417 4.00007V5.60007C9.52417 5.74733 9.40456 5.86673 9.25702 5.86673H7.65415C7.50662 5.86673 7.38701 5.74733 7.38701 5.60007V4.00007C7.38701 3.8528 7.50662 3.7334 7.65415 3.7334ZM7.9213 5.3334H8.98988V4.26673H7.9213V5.3334Z" fill="#84829A"/>
<path d="M7.65415 1.06665H9.25702C9.40456 1.06665 9.52417 1.18605 9.52417 1.33332V2.93332C9.52417 3.08058 9.40456 3.19998 9.25702 3.19998H7.65415C7.50662 3.19998 7.38701 3.08058 7.38701 2.93332V1.33332C7.38701 1.18605 7.50662 1.06665 7.65415 1.06665ZM7.9213 2.66665H8.98988V1.59998H7.9213V2.66665Z" fill="#84829A"/>
<path d="M10.3257 3.7334H11.9285C12.0761 3.7334 12.1957 3.8528 12.1957 4.00007V5.60007C12.1957 5.74733 12.0761 5.86673 11.9285 5.86673H10.3257C10.1781 5.86673 10.0585 5.74733 10.0585 5.60007V4.00007C10.0585 3.8528 10.1781 3.7334 10.3257 3.7334ZM10.5928 5.3334H11.6614V4.26673H10.5928V5.3334Z" fill="#84829A"/>
<path d="M10.3257 1.06665H11.9285C12.0761 1.06665 12.1957 1.18605 12.1957 1.33332V2.93332C12.1957 3.08058 12.0761 3.19998 11.9285 3.19998H10.3257C10.1781 3.19998 10.0585 3.08058 10.0585 2.93332V1.33332C10.0585 1.18605 10.1781 1.06665 10.3257 1.06665ZM10.5928 2.66665H11.6614V1.59998H10.5928V2.66665Z" fill="#84829A"/>
<path d="M10.3257 6.3999H11.9285C12.0761 6.3999 12.1957 6.5193 12.1957 6.66657V8.26657C12.1957 8.41384 12.0761 8.53324 11.9285 8.53324H10.3257C10.1781 8.53324 10.0585 8.41384 10.0585 8.26657V6.66657C10.0585 6.5193 10.1781 6.3999 10.3257 6.3999ZM10.5928 7.9999H11.6614V6.93324H10.5928V7.9999Z" fill="#84829A"/>
<path d="M10.3257 9.06665H11.9285C12.0761 9.06665 12.1957 9.18605 12.1957 9.33332V10.9333C12.1957 11.0806 12.0761 11.2 11.9285 11.2H10.3257C10.1781 11.2 10.0585 11.0806 10.0585 10.9333V9.33332C10.0585 9.18605 10.1781 9.06665 10.3257 9.06665ZM10.5928 10.6667H11.6614V9.59998H10.5928V10.6667Z" fill="#84829A"/>
<path d="M5.24982 12.2666H3.64695C3.49942 12.2666 3.3798 12.1472 3.3798 12V10.4C3.3798 10.2527 3.49942 10.1333 3.64695 10.1333H5.24982C5.39735 10.1333 5.51697 10.2527 5.51697 10.4V12C5.51697 12.1472 5.39735 12.2666 5.24982 12.2666ZM4.98268 10.6666H3.9141V11.7333H4.98268V10.6666Z" fill="#84829A"/>
<path d="M5.24982 9.59989H3.64695C3.49942 9.59989 3.3798 9.48049 3.3798 9.33322V7.73322C3.3798 7.58595 3.49942 7.46655 3.64695 7.46655H5.24982C5.39735 7.46655 5.51697 7.58595 5.51697 7.73322V9.33322C5.51697 9.48049 5.39735 9.59989 5.24982 9.59989ZM4.98268 7.99989H3.9141V9.06655H4.98268V7.99989Z" fill="#84829A"/>
<path d="M5.24982 14.9334H3.64695C3.49942 14.9334 3.3798 14.814 3.3798 14.6667V13.0667C3.3798 12.9194 3.49942 12.8 3.64695 12.8H5.24982C5.39735 12.8 5.51697 12.9194 5.51697 13.0667V14.6667C5.51697 14.814 5.39735 14.9334 5.24982 14.9334ZM4.98268 13.3334H3.9141V14.4H4.98268V13.3334Z" fill="#84829A"/>
<path d="M7.92133 12.2666H6.31846C6.17093 12.2666 6.05131 12.1472 6.05131 12V10.4C6.05131 10.2527 6.17093 10.1333 6.31846 10.1333H7.92133C8.06886 10.1333 8.18848 10.2527 8.18848 10.4V12C8.18848 12.1472 8.06886 12.2666 7.92133 12.2666ZM7.65419 10.6666H6.5856V11.7333H7.65419V10.6666Z" fill="#84829A"/>
<path d="M7.92133 9.59989H6.31846C6.17093 9.59989 6.05131 9.48049 6.05131 9.33322V7.73322C6.05131 7.58595 6.17093 7.46655 6.31846 7.46655H7.92133C8.06886 7.46655 8.18848 7.58595 8.18848 7.73322V9.33322C8.18848 9.48049 8.06886 9.59989 7.92133 9.59989ZM7.65419 7.99989H6.5856V9.06655H7.65419V7.99989Z" fill="#84829A"/>
<path d="M7.92133 14.9334H6.31846C6.17093 14.9334 6.05131 14.814 6.05131 14.6667V13.0667C6.05131 12.9194 6.17093 12.8 6.31846 12.8H7.92133C8.06886 12.8 8.18848 12.9194 8.18848 13.0667V14.6667C8.18848 14.814 8.06886 14.9334 7.92133 14.9334ZM7.65419 13.3334H6.5856V14.4H7.65419V13.3334Z" fill="#84829A"/>
</svg>
