<svg width="21" height="20" viewBox="0 0 21 20" fill="none" xmlns="http://www.w3.org/2000/svg">
<path d="M19.1102 2.45457C18.0738 1.34265 16.6217 0.709981 15.1002 0.707636C13.5775 0.709395 12.1239 1.34173 11.0859 2.45386L10.7322 2.82698L10.3785 2.45386C8.31891 0.241198 4.85233 0.114128 2.63574 2.16998C2.53752 2.26112 2.44266 2.35577 2.35136 2.45386C0.166572 4.80619 0.166572 8.44162 2.35136 10.794L10.2123 19.069C10.4843 19.3556 10.9375 19.3679 11.2246 19.0964C11.234 19.0875 11.2432 19.0784 11.2521 19.069L19.1102 10.794C21.2948 8.44187 21.2948 4.80665 19.1102 2.45457ZM18.074 9.80969H18.0733L10.7322 17.5386L3.39038 9.80969C1.72133 8.01229 1.72133 5.23481 3.39038 3.43741C4.90608 1.79757 7.46659 1.69475 9.10938 3.20773C9.18914 3.28119 9.26588 3.35779 9.33947 3.43741L10.2123 4.35663C10.5 4.64193 10.9644 4.64193 11.2521 4.35663L12.125 3.43812C13.6407 1.79828 16.2012 1.69546 17.8439 3.20844C17.9237 3.2819 18.0004 3.35851 18.074 3.43812C19.7576 5.23837 19.7699 8.02092 18.074 9.80969Z" fill="#4152CA"/>
</svg>
