<svg width="15" height="14" viewBox="0 0 15 14" fill="none" xmlns="http://www.w3.org/2000/svg">
<g clip-path="url(#clip0_1_199)">
<path d="M13.8783 0.150827C13.5088 0.0428744 4.46952 -0.855475 1.29499 3.42567C-0.110968 5.32223 -0.132088 7.9221 1.22454 11.1525C0.880404 11.8655 0.579138 12.6166 0.333616 13.4091C0.258971 13.6499 0.39399 13.9052 0.634965 13.9795C0.679889 13.9934 0.725388 14 0.770312 14C0.96513 14 1.146 13.8744 1.20638 13.6787C3.62593 5.87028 11.4889 2.09267 13.9002 1.13834C14.1349 1.0454 14.4485 0.317405 13.8783 0.150827Z" fill="#84829A"/>
<path d="M2.67566 12.1298C3.9844 12.6778 5.29296 12.9587 6.50983 12.9587C7.6036 12.9587 8.62362 12.7342 9.5026 12.279C11.2716 11.363 12.3526 9.61081 12.6286 7.21132C12.9099 4.7659 13.26 3.23416 13.5521 2.29712C10.9521 3.49428 5.37736 6.5974 2.67566 12.1298Z" fill="#84829A"/>
</g>
<defs>
<clipPath id="clip0_1_199">
<rect width="14.0251" height="14" fill="white" transform="translate(0.199341)"/>
</clipPath>
</defs>
</svg>
