<svg width="15" height="14" viewBox="0 0 15 14" fill="none" xmlns="http://www.w3.org/2000/svg">
<path d="M13.8196 3.56123e-08C13.7417 -2.92608e-05 13.665 0.0180173 13.5954 0.0527336L9.79968 1.94771L5.50756 0.0432416C5.50054 0.0402533 5.49253 0.039726 5.48502 0.0367378C5.46571 0.0295308 5.44595 0.0235251 5.42591 0.0187497C5.40598 0.0133885 5.38573 0.00919911 5.3653 0.00624017C5.32462 0.00290038 5.28374 0.00290038 5.24309 0.00624017C5.22267 0.00919911 5.20242 0.0133885 5.18249 0.0187497C5.16244 0.0235251 5.14269 0.0295308 5.12338 0.0367378C5.11586 0.039726 5.10785 0.040224 5.10084 0.0432416L0.592829 2.04322C0.411862 2.12343 0.295259 2.30255 0.295288 2.50019V13.5C0.295376 13.6692 0.381105 13.8268 0.523183 13.919C0.665291 14.0114 0.844526 14.0257 0.999518 13.957L5.30417 12.047L9.60882 13.957C9.61633 13.96 9.62435 13.957 9.63186 13.9615C9.75313 14.0157 9.89233 14.0126 10.011 13.953C10.019 13.9496 10.028 13.953 10.0361 13.9475L14.0432 11.9476C14.213 11.8629 14.3202 11.6896 14.3202 11.5V0.500237C14.3203 0.224088 14.0962 0.000117221 13.8196 3.56123e-08ZM4.8033 11.1751L1.29706 12.7305V2.8252L4.8033 1.26971V11.1751ZM9.31131 12.7305L5.80507 11.1751V1.26971L9.31131 2.82517V12.7305ZM13.3184 11.1911L10.3131 12.691V2.80918L13.3184 1.3092V11.1911Z" fill="#84829A"/>
</svg>
