<svg width="15" height="14" viewBox="0 0 15 14" fill="none" xmlns="http://www.w3.org/2000/svg">
<path d="M12.7498 1.24239L6.42093 7.58323C6.34838 7.54127 6.27208 7.50611 6.19302 7.47823L2.0147 6.06656C1.88834 6.03495 1.77619 5.9621 1.69605 5.85958C1.61591 5.75706 1.57239 5.63076 1.57239 5.50072C1.57239 5.37069 1.61591 5.24439 1.69605 5.14187C1.77619 5.03935 1.88834 4.9665 2.0147 4.93489L12.3816 1.25406C12.4494 1.23109 12.5204 1.21927 12.592 1.21906C12.6455 1.2182 12.6988 1.22608 12.7498 1.24239Z" fill="#84829A"/>
<path d="M13.153 2.02424L9.46556 12.3842C9.4249 12.505 9.34576 12.6091 9.24024 12.6807C9.13472 12.7524 9.00861 12.7875 8.88118 12.7809C8.75228 12.7868 8.62504 12.7499 8.51933 12.6761C8.41362 12.6022 8.33537 12.4955 8.2968 12.3726L6.90597 8.20174C6.87803 8.12282 6.84282 8.04666 6.80078 7.97424L13.1647 1.65674C13.2006 1.77729 13.1965 1.9062 13.153 2.02424V2.02424Z" fill="#84829A"/>
</svg>
