<svg width="48" height="48" viewBox="0 0 48 48" fill="none" xmlns="http://www.w3.org/2000/svg">
<rect width="47.0844" height="48" rx="13" fill="#F0BB1F"/>
<path d="M13.5689 17.4755C13.2718 17.4755 13.0287 17.2328 13.0233 16.9363V13.5446C13.0233 13.2426 13.2664 13 13.5689 13H16.9667C17.2638 13 17.5069 13.2426 17.5069 13.5446V14.7255H30.5793V13.5446C30.5793 13.248 30.8224 13.0054 31.1195 13H34.5173C34.8144 13 35.0574 13.2426 35.0628 13.5446V16.9363C35.0628 17.2328 34.8198 17.4755 34.5173 17.4755H33.3342V30.5245H34.5173C34.8144 30.5245 35.0574 30.7672 35.0628 31.0637V34.4554C35.0628 34.752 34.8198 34.9946 34.5173 35H31.1195C30.8224 35 30.5793 34.7574 30.5793 34.4554V33.2745H17.5069V34.4554C17.5069 34.752 17.2638 34.9946 16.9667 35H13.5689C13.2718 35 13.0287 34.7574 13.0233 34.4554V31.0637C13.0233 30.7672 13.2664 30.5245 13.5689 30.5245H14.7519V17.4755H13.5689ZM33.9825 16.3971V14.0784H31.6597V16.3971H33.9825ZM31.6597 33.9216H33.9825V31.6029H31.6597V33.9216ZM17.5069 31.0637V32.1961H30.5793V31.0637C30.5793 30.7672 30.8224 30.5245 31.1195 30.5245H32.2539V17.4755H31.1195C30.8224 17.4755 30.5793 17.2328 30.5793 16.9363V15.8039H17.5069V16.9363C17.5069 17.2328 17.2638 17.4755 16.9667 17.4755H15.8323V30.5245H16.9667C17.2638 30.5245 17.5069 30.7672 17.5069 31.0637ZM14.1037 31.6029V33.9216H16.4265V31.6029H14.1037ZM16.4265 16.3971V14.0784H14.1037V16.3971H16.4265Z" fill="white"/>
</svg>
