<svg width="48" height="48" viewBox="0 0 48 48" fill="none" xmlns="http://www.w3.org/2000/svg">
<rect width="47.0844" height="48" rx="13" fill="#F15A2B"/>
<path d="M32.8773 31.9286C32.4264 31.9378 31.9834 31.809 31.6079 31.5595C31.3284 31.3772 31.0018 31.2802 30.6679 31.2802C30.3341 31.2802 30.0075 31.3772 29.728 31.5595C29.3487 31.8006 28.9084 31.9286 28.4587 31.9286C28.0091 31.9286 27.5688 31.8006 27.1895 31.5595C26.91 31.377 26.5833 31.2799 26.2494 31.2799C25.9154 31.2799 25.5887 31.377 25.3093 31.5595C24.93 31.8006 24.4897 31.9286 24.04 31.9286C23.5904 31.9286 23.1501 31.8006 22.7708 31.5595C22.4915 31.3772 22.165 31.28 21.8313 31.28C21.4976 31.28 21.1711 31.3772 20.8918 31.5595C20.5479 31.7876 20.1466 31.9144 19.7339 31.9253L19.7111 31.2767C20.016 31.2695 20.3121 31.1732 20.5627 30.9997C20.9419 30.7587 21.3821 30.6307 21.8316 30.6307C22.2812 30.6307 22.7214 30.7587 23.1005 30.9997C23.38 31.1821 23.7066 31.2792 24.0405 31.2792C24.3744 31.2792 24.701 31.1821 24.9805 30.9997C25.3598 30.7585 25.8002 30.6304 26.25 30.6304C26.6998 30.6304 27.1403 30.7585 27.5196 30.9997C27.7991 31.1821 28.1257 31.2792 28.4596 31.2792C28.7934 31.2792 29.1201 31.1821 29.3995 30.9997C29.7788 30.7588 30.2191 30.6308 30.6688 30.6308C31.1184 30.6308 31.5587 30.7588 31.938 30.9997C32.2181 31.1825 32.5456 31.2799 32.8802 31.2799C33.2149 31.2799 33.5423 31.1825 33.8225 30.9997C34.1975 30.751 34.6397 30.6224 35.0899 30.6313V31.2799C34.7547 31.2708 34.4253 31.3686 34.1496 31.5592C33.7732 31.809 33.3293 31.9379 32.8773 31.9286V31.9286Z" fill="white"/>
<path d="M15.2056 31.9285C14.7547 31.9378 14.3118 31.809 13.9365 31.5594C13.6609 31.3686 13.3315 31.2707 12.9962 31.2798V30.6312C13.4472 30.6218 13.8902 30.7506 14.2657 31.0002C14.5411 31.191 14.8705 31.289 15.2056 31.2798C15.5409 31.289 15.8704 31.1909 16.1459 30.9999C16.5205 30.7504 16.9628 30.6217 17.413 30.6312C17.8523 30.6213 18.2844 30.7442 18.6525 30.9837L18.3247 31.5435C18.0558 31.3628 17.737 31.2706 17.413 31.2798C17.0791 31.2708 16.751 31.3685 16.4766 31.5587C16.1009 31.809 15.6572 31.9381 15.2056 31.9285V31.9285Z" fill="white"/>
<path d="M32.8783 29.6579C32.427 29.6671 31.9837 29.5383 31.6079 29.2888C31.3282 29.1064 31.0013 29.0092 30.6671 29.0092C30.333 29.0092 30.0061 29.1064 29.7263 29.2888C29.3471 29.5298 28.9068 29.6578 28.4573 29.6578C28.0077 29.6578 27.5674 29.5298 27.1882 29.2888C26.9088 29.1065 26.5823 29.0094 26.2485 29.0094C25.9148 29.0094 25.5882 29.1065 25.3089 29.2888C24.9297 29.5299 24.4894 29.6579 24.0398 29.6579C23.5902 29.6579 23.15 29.5299 22.7707 29.2888C22.4914 29.1065 22.1649 29.0094 21.8311 29.0094C21.4973 29.0094 21.1708 29.1065 20.8915 29.2888C20.5162 29.5384 20.0733 29.6672 19.6224 29.6579C19.1715 29.6672 18.7286 29.5384 18.3533 29.2888C18.0779 29.0981 17.7487 29.0001 17.4137 29.0093C17.0787 29.0002 16.7496 29.0981 16.4744 29.2888C16.0997 29.5381 15.6575 29.6669 15.2072 29.6579C14.7563 29.6672 14.3132 29.5384 13.9378 29.2888C13.6619 29.0977 13.332 28.9997 12.9962 29.0093V28.3606C13.4471 28.3513 13.89 28.4801 14.2653 28.7297C14.541 28.9204 14.8704 29.0184 15.2056 29.0093C15.5406 29.0183 15.8696 28.9204 16.1449 28.7297C16.5196 28.4804 16.9618 28.3516 17.4121 28.3606C17.8633 28.351 18.3066 28.4799 18.6821 28.7297C18.9576 28.9205 19.2869 29.0184 19.6221 29.0093C19.9572 29.0184 20.2866 28.9205 20.562 28.7297C20.9412 28.4886 21.3815 28.3605 21.8311 28.3605C22.2807 28.3605 22.721 28.4886 23.1002 28.7297C23.3796 28.9121 23.7062 29.0092 24.04 29.0092C24.3738 29.0092 24.7004 28.9121 24.9798 28.7297C25.359 28.4886 25.7993 28.3605 26.2489 28.3605C26.6985 28.3605 27.1387 28.4886 27.5179 28.7297C27.7973 28.9121 28.1239 29.0092 28.4577 29.0092C28.7916 29.0092 29.1181 28.9121 29.3975 28.7297C29.7771 28.4887 30.2177 28.3607 30.6676 28.3607C31.1175 28.3607 31.558 28.4887 31.9377 28.7297C32.2175 28.912 32.5445 29.0091 32.8787 29.0091C33.213 29.0091 33.54 28.912 33.8198 28.7297C34.1956 28.4803 34.6387 28.3515 35.0899 28.3606V29.0093C34.754 28.9998 34.4238 29.0977 34.1477 29.2888C33.7721 29.5381 33.3292 29.6669 32.8783 29.6579V29.6579Z" fill="white"/>
<path d="M32.8773 27.388C32.4263 27.3972 31.9833 27.2684 31.6079 27.0189C31.3323 26.8282 31.0028 26.7303 30.6676 26.7394C30.4216 26.7309 30.1772 26.7833 29.9564 26.8918L29.6698 26.308C29.98 26.1563 30.3223 26.0814 30.6676 26.0897C31.1191 26.0806 31.5626 26.2097 31.9383 26.4598C32.2184 26.6426 32.5459 26.7399 32.8805 26.7399C33.2152 26.7399 33.5426 26.6426 33.8228 26.4598C34.1976 26.2109 34.6397 26.0821 35.0899 26.0907V26.7394C34.7547 26.7302 34.4253 26.828 34.1496 27.0186C33.7732 27.2685 33.3292 27.3974 32.8773 27.388Z" fill="white"/>
<path d="M28.4553 27.3879C28.0051 27.3973 27.5628 27.2686 27.1882 27.0191C26.9087 26.8366 26.582 26.7395 26.248 26.7395C25.9141 26.7395 25.5874 26.8366 25.3079 27.0191C24.9286 27.2602 24.4883 27.3882 24.0387 27.3882C23.589 27.3882 23.1487 27.2602 22.7694 27.0191C22.49 26.8367 22.1634 26.7396 21.8295 26.7396C21.4956 26.7396 21.169 26.8367 20.8895 27.0191C20.5143 27.2683 20.0717 27.397 19.6211 27.3879C19.1702 27.3972 18.7273 27.2684 18.352 27.0188C18.0764 26.8281 17.747 26.7301 17.4117 26.7392C17.0778 26.7302 16.7497 26.828 16.4753 27.0181C16.1 27.2682 15.6568 27.3972 15.2056 27.3879C14.7547 27.3972 14.3118 27.2684 13.9365 27.0188C13.6609 26.8281 13.3315 26.7301 12.9962 26.7392V26.0906C13.4472 26.0812 13.8902 26.21 14.2657 26.4597C14.5411 26.6504 14.8705 26.7484 15.2056 26.7392C15.5409 26.7484 15.8704 26.6503 16.1459 26.4593C16.5205 26.2098 16.9628 26.0811 17.413 26.0906C17.8639 26.0813 18.3068 26.2101 18.6821 26.4597C18.9576 26.6504 19.2869 26.7484 19.6221 26.7392C19.9573 26.7483 20.2867 26.6504 20.5623 26.4597C20.9416 26.2186 21.382 26.0906 21.8316 26.0906C22.2812 26.0906 22.7215 26.2186 23.1008 26.4597C23.3803 26.642 23.7069 26.7391 24.0408 26.7391C24.3747 26.7391 24.7013 26.642 24.9808 26.4597C25.3601 26.2184 25.8005 26.0903 26.2503 26.0903C26.7001 26.0903 27.1405 26.2184 27.5199 26.4597C27.8061 26.6518 28.1456 26.7495 28.4904 26.7389C28.5155 26.7392 28.5405 26.7379 28.5654 26.735L28.6519 27.3778C28.5866 27.3854 28.521 27.3888 28.4553 27.3879V27.3879Z" fill="white"/>
<path d="M32.8783 25.1174C32.427 25.1266 31.9837 24.9978 31.6079 24.7483C31.3282 24.5658 31.0013 24.4687 30.6671 24.4687C30.333 24.4687 30.0061 24.5658 29.7263 24.7483C29.3471 24.9893 28.9068 25.1173 28.4573 25.1173C28.0077 25.1173 27.5674 24.9893 27.1882 24.7483C26.9088 24.5659 26.5823 24.4688 26.2485 24.4688C25.9148 24.4688 25.5882 24.5659 25.3089 24.7483C24.9297 24.9893 24.4894 25.1174 24.0398 25.1174C23.5902 25.1174 23.15 24.9893 22.7707 24.7483C22.4914 24.5659 22.1649 24.4688 21.8311 24.4688C21.4973 24.4688 21.1708 24.5659 20.8915 24.7483C20.5162 24.9979 20.0733 25.1267 19.6224 25.1174C19.1715 25.1267 18.7286 24.9979 18.3533 24.7483C18.0779 24.5575 17.7487 24.4596 17.4137 24.4687C17.0787 24.4596 16.7496 24.5576 16.4744 24.7483C16.0997 24.9976 15.6575 25.1264 15.2072 25.1174C14.7563 25.1267 14.3132 24.9979 13.9378 24.7483C13.6619 24.5572 13.332 24.4592 12.9962 24.4687V23.8201C13.4471 23.8108 13.89 23.9396 14.2653 24.1892C14.541 24.3799 14.8704 24.4778 15.2056 24.4687C15.5406 24.4778 15.8696 24.3799 16.1449 24.1892C16.5196 23.9398 16.9618 23.811 17.4121 23.8201C17.8633 23.8105 18.3066 23.9393 18.6821 24.1892C18.9576 24.3799 19.2869 24.4779 19.6221 24.4687C19.9572 24.4779 20.2866 24.3799 20.562 24.1892C20.9412 23.9481 21.3815 23.82 21.8311 23.82C22.2807 23.82 22.721 23.9481 23.1002 24.1892C23.3796 24.3715 23.7062 24.4687 24.04 24.4687C24.3738 24.4687 24.7004 24.3715 24.9798 24.1892C25.359 23.9481 25.7993 23.82 26.2489 23.82C26.6985 23.82 27.1387 23.9481 27.5179 24.1892C27.7973 24.3715 28.1239 24.4687 28.4577 24.4687C28.7916 24.4687 29.1181 24.3715 29.3975 24.1892C29.7771 23.9482 30.2177 23.8202 30.6676 23.8202C31.1175 23.8202 31.558 23.9482 31.9377 24.1892C32.2175 24.3715 32.5445 24.4686 32.8787 24.4686C33.213 24.4686 33.54 24.3715 33.8198 24.1892C34.1956 23.9397 34.6387 23.8109 35.0899 23.8201V24.4687C34.754 24.4592 34.4238 24.5572 34.1477 24.7483C33.7721 24.9976 33.3292 25.1264 32.8783 25.1174V25.1174Z" fill="white"/>
<path d="M28.2484 24.8423L27.6353 24.6276C27.7932 24.1748 27.8577 23.6947 27.8249 23.2163C27.7921 22.738 27.6627 22.2711 27.4445 21.844L25.2128 17.4815C25.1907 17.4384 25.1786 17.3909 25.1773 17.3426C25.176 17.2942 25.1856 17.2462 25.2053 17.202C25.2251 17.1578 25.2544 17.1186 25.2913 17.0872C25.3282 17.0558 25.3716 17.0331 25.4184 17.0206L29.8661 15.8368C30.011 15.799 30.1351 15.7056 30.2114 15.5768C30.2877 15.4481 30.3099 15.2946 30.2734 15.1495C30.2368 15.0045 30.1443 14.8798 30.0161 14.8025C29.8878 14.7252 29.7342 14.7015 29.5886 14.7367L24.2055 16.021C24.0905 16.0482 23.9832 16.1014 23.892 16.1766C23.8009 16.2518 23.7283 16.3469 23.6799 16.4546C23.6315 16.5623 23.6085 16.6796 23.6129 16.7976C23.6172 16.9155 23.6487 17.0309 23.7049 17.1348L25.3034 20.0991C25.344 20.1744 25.353 20.2627 25.3287 20.3447C25.3044 20.4267 25.2486 20.4958 25.1734 20.5369L23.1103 21.6721L22.7968 21.1038L24.5779 20.1237L23.1334 17.4422C23.03 17.2508 22.9722 17.0382 22.9643 16.8209C22.9564 16.6036 22.9987 16.3874 23.0879 16.189C23.1771 15.9906 23.3108 15.8154 23.4787 15.6768C23.6466 15.5382 23.8441 15.4401 24.0561 15.3899L29.4365 14.1059C29.7498 14.0269 30.0816 14.0753 30.3591 14.2406C30.6365 14.4058 30.8369 14.6743 30.916 14.9869C30.9952 15.2996 30.9466 15.6308 30.7811 15.9078C30.6156 16.1848 30.3466 16.3847 30.0334 16.4637L25.974 17.5437L28.0235 21.5485C28.2816 22.054 28.4346 22.6064 28.4732 23.1725C28.5118 23.7385 28.4354 24.3065 28.2484 24.8423V24.8423Z" fill="white"/>
<path d="M21.6611 21.7338L17.7127 23.9055L18.0262 24.4733L21.9745 22.3016L21.6611 21.7338Z" fill="white"/>
<path d="M31.191 22.6849C30.7091 22.6849 30.238 22.5423 29.8372 22.275C29.4365 22.0077 29.1242 21.6278 28.9397 21.1834C28.7553 20.7389 28.707 20.2498 28.8011 19.778C28.8951 19.3061 29.1272 18.8727 29.468 18.5325C29.8088 18.1923 30.243 17.9607 30.7156 17.8668C31.1883 17.773 31.6783 17.8211 32.1236 18.0052C32.5688 18.1893 32.9494 18.5011 33.2172 18.9011C33.4849 19.3011 33.6278 19.7714 33.6278 20.2525C33.6271 20.8974 33.3702 21.5157 32.9134 21.9717C32.4565 22.4278 31.8371 22.6842 31.191 22.6849V22.6849ZM31.191 18.4687C30.8376 18.4687 30.4921 18.5733 30.1982 18.7693C29.9044 18.9653 29.6753 19.2439 29.5401 19.5699C29.4048 19.8958 29.3694 20.2545 29.4384 20.6005C29.5073 20.9465 29.6775 21.2644 29.9275 21.5138C30.1774 21.7633 30.4958 21.9332 30.8424 22.002C31.1891 22.0708 31.5484 22.0355 31.8749 21.9005C32.2014 21.7655 32.4805 21.5369 32.6769 21.2435C32.8732 20.9502 32.978 20.6053 32.978 20.2525C32.9774 19.7796 32.789 19.3262 32.454 18.9918C32.119 18.6574 31.6648 18.4693 31.191 18.4687V18.4687Z" fill="white"/>
</svg>
