<svg width="48" height="48" viewBox="0 0 48 48" fill="none" xmlns="http://www.w3.org/2000/svg">
<rect width="47.0844" height="48" rx="13" fill="#006380"/>
<path d="M16.5296 26.125C16.2324 26.125 15.9419 26.213 15.6948 26.3778C15.4476 26.5426 15.255 26.7769 15.1413 27.051C15.0276 27.3251 14.9978 27.6267 15.0558 27.9176C15.1138 28.2086 15.2569 28.4759 15.467 28.6857C15.6772 28.8954 15.945 29.0383 16.2364 29.0962C16.5279 29.1541 16.8301 29.1244 17.1047 29.0108C17.3792 28.8973 17.6139 28.705 17.7791 28.4584C17.9442 28.2117 18.0323 27.9217 18.0323 27.625C18.0323 27.2272 17.874 26.8456 17.5922 26.5643C17.3104 26.283 16.9281 26.125 16.5296 26.125ZM16.5296 28.375C16.381 28.375 16.2357 28.331 16.1122 28.2486C15.9886 28.1662 15.8923 28.0491 15.8355 27.912C15.7786 27.775 15.7637 27.6242 15.7927 27.4787C15.8217 27.3332 15.8933 27.1996 15.9983 27.0947C16.1034 26.9898 16.2373 26.9184 16.383 26.8894C16.5288 26.8605 16.6798 26.8753 16.8171 26.9321C16.9544 26.9889 17.0718 27.085 17.1543 27.2083C17.2369 27.3317 17.281 27.4767 17.281 27.625C17.281 27.8239 17.2018 28.0147 17.0609 28.1553C16.92 28.296 16.7289 28.375 16.5296 28.375Z" fill="white"/>
<path d="M31.5566 26.125C31.2593 26.125 30.9688 26.213 30.7217 26.3778C30.4746 26.5426 30.282 26.7769 30.1682 27.051C30.0545 27.3251 30.0248 27.6267 30.0827 27.9176C30.1407 28.2086 30.2838 28.4759 30.494 28.6857C30.7041 28.8954 30.9719 29.0383 31.2634 29.0962C31.5549 29.1541 31.857 29.1244 32.1316 29.0108C32.4062 28.8973 32.6409 28.705 32.806 28.4584C32.9711 28.2117 33.0592 27.9217 33.0592 27.625C33.0592 27.2272 32.9009 26.8456 32.6191 26.5643C32.3373 26.283 31.9551 26.125 31.5566 26.125ZM31.5566 28.375C31.408 28.375 31.2627 28.331 31.1391 28.2486C31.0156 28.1662 30.9193 28.0491 30.8624 27.912C30.8055 27.775 30.7907 27.6242 30.8196 27.4787C30.8486 27.3332 30.9202 27.1996 31.0253 27.0947C31.1303 26.9898 31.2642 26.9184 31.41 26.8894C31.5557 26.8605 31.7068 26.8753 31.8441 26.9321C31.9814 26.9889 32.0987 27.085 32.1813 27.2083C32.2638 27.3317 32.3079 27.4767 32.3079 27.625C32.3079 27.8239 32.2287 28.0147 32.0878 28.1553C31.9469 28.296 31.7558 28.375 31.5566 28.375Z" fill="white"/>
<path d="M20.662 28H27.4241V28.75H20.662V28Z" fill="white"/>
<path d="M20.662 26.5H27.4241V27.25H20.662V26.5Z" fill="white"/>
<path d="M22.9161 20.875H25.1701V21.625H22.9161V20.875Z" fill="white"/>
<path d="M35.3133 24.25V23.5C35.3124 23.2019 35.1934 22.9163 34.9822 22.7055C34.771 22.4947 34.4849 22.3759 34.1863 22.375H32.6986L31.921 19.6525L31.688 18.7263C31.6269 18.483 31.4861 18.2672 31.2881 18.113C31.09 17.9587 30.846 17.875 30.5948 17.875H27.4241V16.375C27.4236 16.1763 27.3442 15.9858 27.2034 15.8453C27.0626 15.7048 26.8719 15.6256 26.6728 15.625H21.4134C21.2143 15.6256 21.0235 15.7048 20.8827 15.8453C20.742 15.9858 20.6626 16.1763 20.662 16.375V17.875H17.4913C17.2401 17.875 16.9961 17.9587 16.7981 18.113C16.6 18.2672 16.4593 18.483 16.3981 18.7263L16.169 19.6487L15.3876 22.375H13.8999C13.6013 22.3759 13.3151 22.4947 13.104 22.7055C12.8928 22.9163 12.7738 23.2019 12.7729 23.5V24.25C12.7735 24.44 12.8224 24.6267 12.9151 24.7926C13.0077 24.9586 13.1411 25.0983 13.3026 25.1987C12.963 25.5471 12.7729 26.0139 12.7729 26.5V31C12.7734 31.1573 12.8071 31.3128 12.8719 31.4562C12.9366 31.5996 13.0309 31.7279 13.1486 31.8325V33.25C13.1495 33.5481 13.2685 33.8337 13.4796 34.0445C13.6908 34.2553 13.977 34.3741 14.2756 34.375H17.281C17.5796 34.3741 17.8657 34.2553 18.0769 34.0445C18.2881 33.8337 18.4071 33.5481 18.408 33.25V32.125H29.6782V33.25C29.6791 33.5481 29.7981 33.8337 30.0093 34.0445C30.2204 34.2553 30.5066 34.3741 30.8052 34.375H33.8106C34.1092 34.3741 34.3954 34.2553 34.6065 34.0445C34.8177 33.8337 34.9367 33.5481 34.9376 33.25V31.8325C35.0553 31.7279 35.1496 31.5996 35.2143 31.4562C35.279 31.3128 35.3128 31.1573 35.3133 31V26.5C35.3132 26.0139 35.1232 25.5471 34.7836 25.1987C34.9451 25.0983 35.0785 24.9586 35.1711 24.7926C35.2638 24.6267 35.3127 24.44 35.3133 24.25V24.25ZM21.4134 16.375H26.6728V17.875H21.4134V16.375ZM17.1269 18.91C17.1471 18.8287 17.1939 18.7565 17.2599 18.7048C17.326 18.6532 17.4074 18.6251 17.4913 18.625H30.5948C30.6787 18.6251 30.7602 18.6532 30.8262 18.7048C30.8923 18.7565 30.9391 18.8287 30.9592 18.91L31.0757 19.375H17.0105L17.1269 18.91ZM16.8114 20.125H31.2748L32.5596 24.625H21.7552C21.6669 24.1009 21.3955 23.6251 20.989 23.2819C20.5825 22.9387 20.0674 22.7504 19.535 22.7504C19.0026 22.7504 18.4875 22.9387 18.081 23.2819C17.6746 23.6251 17.4031 24.1009 17.3148 24.625H15.5266L16.8114 20.125ZM20.9851 24.625H18.0849C18.1669 24.3032 18.354 24.0179 18.6166 23.8141C18.8792 23.6103 19.2024 23.4997 19.535 23.4997C19.8676 23.4997 20.1908 23.6103 20.4534 23.8141C20.716 24.0179 20.9031 24.3032 20.9851 24.625V24.625ZM13.5242 23.5C13.5242 23.4005 13.5638 23.3052 13.6343 23.2348C13.7047 23.1645 13.8003 23.125 13.8999 23.125H15.1734L14.7452 24.625H13.8999C13.8003 24.625 13.7047 24.5855 13.6343 24.5152C13.5638 24.4448 13.5242 24.3495 13.5242 24.25V23.5ZM17.6566 33.25C17.6566 33.3495 17.6171 33.4448 17.5466 33.5152C17.4762 33.5855 17.3806 33.625 17.281 33.625H14.2756C14.1759 33.625 14.0804 33.5855 14.0099 33.5152C13.9395 33.4448 13.8999 33.3495 13.8999 33.25V32.125H17.6566V33.25ZM34.1863 33.25C34.1863 33.3495 34.1467 33.4448 34.0762 33.5152C34.0058 33.5855 33.9102 33.625 33.8106 33.625H30.8052C30.7056 33.625 30.61 33.5855 30.5396 33.5152C30.4691 33.4448 30.4295 33.3495 30.4295 33.25V32.125H34.1863V33.25ZM34.5619 31C34.5619 31.0995 34.5224 31.1948 34.4519 31.2652C34.3815 31.3355 34.2859 31.375 34.1863 31.375H13.8999C13.8003 31.375 13.7047 31.3355 13.6343 31.2652C13.5638 31.1948 13.5242 31.0995 13.5242 31V30.625H34.5619V31ZM34.5619 29.875H13.5242V26.5C13.5251 26.2019 13.6442 25.9163 13.8553 25.7055C14.0665 25.4947 14.3526 25.3759 14.6513 25.375H33.4349C33.7335 25.3759 34.0197 25.4947 34.2309 25.7055C34.442 25.9163 34.561 26.2019 34.5619 26.5V29.875ZM34.5619 24.25C34.5619 24.3495 34.5224 24.4448 34.4519 24.5152C34.3815 24.5855 34.2859 24.625 34.1863 24.625H33.341L32.9127 23.125H34.1863C34.2859 23.125 34.3815 23.1645 34.4519 23.2348C34.5224 23.3052 34.5619 23.4005 34.5619 23.5V24.25Z" fill="white"/>
</svg>
